#tb 0: 1/25
0,          0,          0,        1,    38016, 0xb3883478
0,          1,          1,        1,    38016, 0xddf01d9d
0,          2,          2,        1,    38016, 0xb177ece2
0,          3,          3,        1,    38016, 0xfcd6aec1
0,          4,          4,        1,    38016, 0x5cb5a017
0,          5,          5,        1,    38016, 0xeb3884e7
0,          6,          6,        1,    38016, 0xa8494fb1
0,          7,          7,        1,    38016, 0xe0084edb
0,          8,          8,        1,    38016, 0x605845e7
0,          9,          9,        1,    38016, 0xe2103e96
0,         10,         10,        1,    38016, 0x3b057699
0,         11,         11,        1,    38016, 0x130b9413
0,         12,         12,        1,    38016, 0x1af773f6
0,         13,         13,        1,    38016, 0x1a77b1f3
0,         14,         14,        1,    38016, 0xbb5bac34
0,         15,         15,        1,    38016, 0xd41c9cf7
0,         16,         16,        1,    38016, 0x6df3ac7f
0,         17,         17,        1,    38016, 0xba44a850
0,         18,         18,        1,    38016, 0xe8887fc4
0,         19,         19,        1,    38016, 0xa50387fa
0,         20,         20,        1,    38016, 0x164c6317
0,         21,         21,        1,    38016, 0xb9c52925
0,         22,         22,        1,    38016, 0xfbcc2f11
0,         23,         23,        1,    38016, 0x5c0f258c
0,         24,         24,        1,    38016, 0x0d61186e
0,         25,         25,        1,    38016, 0xec173b07
0,         26,         26,        1,    38016, 0x322c353a
0,         27,         27,        1,    38016, 0x30f72be0
0,         28,         28,        1,    38016, 0xb0aa5d52
0,         29,         29,        1,    38016, 0x915a70e2
0,         30,         30,        1,    38016, 0xed9563d3
0,         31,         31,        1,    38016, 0x2122a450
0,         32,         32,        1,    38016, 0xc8a6ba0a
0,         33,         33,        1,    38016, 0x7fbaad08
0,         34,         34,        1,    38016, 0xef19d83b
0,         35,         35,        1,    38016, 0x4fb1d339
0,         36,         36,        1,    38016, 0xe73eb1a3
0,         37,         37,        1,    38016, 0xfd23d6f0
0,         38,         38,        1,    38016, 0xfc21ca53
0,         39,         39,        1,    38016, 0xa6c7b2c9
0,         40,         40,        1,    38016, 0x4fb3c8e0
0,         41,         41,        1,    38016, 0xdb7acc62
0,         42,         42,        1,    38016, 0x281db765
0,         43,         43,        1,    38016, 0x2e11b6e9
0,         44,         44,        1,    38016, 0x8237b906
0,         45,         45,        1,    38016, 0xe3728780
0,         46,         46,        1,    38016, 0x2932a82c
0,         47,         47,        1,    38016, 0x8a0ab2ca
0,         48,         48,        1,    38016, 0xdb38a893
0,         49,         49,        1,    38016, 0xd64cbfc3
0,         50,         50,        1,    38016, 0x8a53b992
0,         51,         51,        1,    38016, 0xef29abc9
0,         52,         52,        1,    38016, 0x6d64baf6
0,         53,         53,        1,    38016, 0xc402bf13
0,         54,         54,        1,    38016, 0x00c7b709
0,         55,         55,        1,    38016, 0x55ddcb84
0,         56,         56,        1,    38016, 0x22cac705
0,         57,         57,        1,    38016, 0xfa1bc59d
0,         58,         58,        1,    38016, 0x82a1d3d0
0,         59,         59,        1,    38016, 0x7db8d411
0,         60,         60,        1,    38016, 0x98a59a5a
0,         61,         61,        1,    38016, 0x02bda814
0,         62,         62,        1,    38016, 0xc4a288d9
0,         63,         63,        1,    38016, 0x799a3804
0,         64,         64,        1,    38016, 0x11474f82
0,         65,         65,        1,    38016, 0x0b807846
0,         66,         66,        1,    38016, 0x2a118c7e
0,         67,         67,        1,    38016, 0xa076e441
0,         68,         68,        1,    38016, 0x9b2c1c2b
0,         69,         69,        1,    38016, 0xf1433098
0,         70,         70,        1,    38016, 0xbf68697b
0,         71,         71,        1,    38016, 0x0c2c94de
0,         72,         72,        1,    38016, 0x5fdcb88b
0,         73,         73,        1,    38016, 0x543dfb09
0,         74,         74,        1,    38016, 0x4c602fc8
0,         75,         75,        1,    38016, 0x4c0b3afa
0,         76,         76,        1,    38016, 0x97dd846b
0,         77,         77,        1,    38016, 0xb5cb97f7
0,         78,         78,        1,    38016, 0x42dba91c
0,         79,         79,        1,    38016, 0x827cc117
0,         80,         80,        1,    38016, 0xd589cd88
0,         81,         81,        1,    38016, 0x15bfdd09
0,         82,         82,        1,    38016, 0x77cbe929
0,         83,         83,        1,    38016, 0x499edfb2
0,         84,         84,        1,    38016, 0x3bd5d22c
0,         85,         85,        1,    38016, 0xed0ed545
0,         86,         86,        1,    38016, 0x1751e754
0,         87,         87,        1,    38016, 0x042feed4
0,         88,         88,        1,    38016, 0x24dde6b3
0,         89,         89,        1,    38016, 0x8aa2ed66
0,         90,         90,        1,    38016, 0x8fa69f07
0,         91,         91,        1,    38016, 0xe018ad28
0,         92,         92,        1,    38016, 0x0b31992e
0,         93,         93,        1,    38016, 0xf8aa6dbc
0,         94,         94,        1,    38016, 0x0eb36da4
0,         95,         95,        1,    38016, 0x392b6658
0,         96,         96,        1,    38016, 0xb8056967
0,         97,         97,        1,    38016, 0x16899181
0,         98,         98,        1,    38016, 0x44b9a1b2
0,         99,         99,        1,    38016, 0x20ee9b98
0,        100,        100,        1,    38016, 0x42cdad98
0,        101,        101,        1,    38016, 0xd438a3d6
0,        102,        102,        1,    38016, 0x551e8751
0,        103,        103,        1,    38016, 0x68428f39
0,        104,        104,        1,    38016, 0x7449b249
0,        105,        105,        1,    38016, 0xf294a253
0,        106,        106,        1,    38016, 0x8628d899
0,        107,        107,        1,    38016, 0xba05f633
0,        108,        108,        1,    38016, 0x329bfacb
0,        109,        109,        1,    38016, 0xaa5c33dd
0,        110,        110,        1,    38016, 0x2b9437d9
0,        111,        111,        1,    38016, 0x8bd8273b
0,        112,        112,        1,    38016, 0xc6d541fb
0,        113,        113,        1,    38016, 0xb42c1e45
0,        114,        114,        1,    38016, 0xdd39e610
0,        115,        115,        1,    38016, 0xae56fe66
0,        116,        116,        1,    38016, 0x812a16e4
0,        117,        117,        1,    38016, 0x47fdff0f
0,        118,        118,        1,    38016, 0xfbb33b56
0,        119,        119,        1,    38016, 0x792a486f
0,        120,        120,        1,    38016, 0x32e93592
0,        121,        121,        1,    38016, 0xbd2142ca
0,        122,        122,        1,    38016, 0x2d412532
0,        123,        123,        1,    38016, 0x5ee8e957
0,        124,        124,        1,    38016, 0x57c3de13
0,        125,        125,        1,    38016, 0xad94b6f1
0,        126,        126,        1,    38016, 0x8cda97a1
0,        127,        127,        1,    38016, 0x3563b54e
0,        128,        128,        1,    38016, 0x1d2bc4fb
0,        129,        129,        1,    38016, 0xada2cf01
0,        130,        130,        1,    38016, 0x8dabed0a
0,        131,        131,        1,    38016, 0x441ae3c0
0,        132,        132,        1,    38016, 0x5514cc85
0,        133,        133,        1,    38016, 0xd20cddad
0,        134,        134,        1,    38016, 0x5286d569
0,        135,        135,        1,    38016, 0x1612a173
0,        136,        136,        1,    38016, 0x5946be84
0,        137,        137,        1,    38016, 0x1925b1fe
0,        138,        138,        1,    38016, 0xf34f93eb
0,        139,        139,        1,    38016, 0xac3d9add
0,        140,        140,        1,    38016, 0x12d18ba6
0,        141,        141,        1,    38016, 0xcc7f7e5a
0,        142,        142,        1,    38016, 0x449270ec
0,        143,        143,        1,    38016, 0x04416f83
0,        144,        144,        1,    38016, 0x50d36abf
0,        145,        145,        1,    38016, 0x8605799f
0,        146,        146,        1,    38016, 0xe6ec6cfd
0,        147,        147,        1,    38016, 0x1f2d3baf
0,        148,        148,        1,    38016, 0x9f3e1a4c
0,        149,        149,        1,    38016, 0x5c3ef4c8
0,        150,        150,        1,    38016, 0xf731aef2
0,        151,        151,        1,    38016, 0x90b4c921
0,        152,        152,        1,    38016, 0xa12dc74f
0,        153,        153,        1,    38016, 0x1fe2a278
0,        154,        154,        1,    38016, 0xa6b0b432
0,        155,        155,        1,    38016, 0xf9e9cb79
0,        156,        156,        1,    38016, 0xef58d10e
0,        157,        157,        1,    38016, 0x957805c0
0,        158,        158,        1,    38016, 0x76e03b1f
0,        159,        159,        1,    38016, 0xcb2a4905
0,        160,        160,        1,    38016, 0xb863646d
0,        161,        161,        1,    38016, 0x3e5f57fe
0,        162,        162,        1,    38016, 0xbe7d3d77
0,        163,        163,        1,    38016, 0x4f3c3ce5
0,        164,        164,        1,    38016, 0x806033d0
0,        165,        165,        1,    38016, 0xc31bf5da
0,        166,        166,        1,    38016, 0x6f8ef69e
0,        167,        167,        1,    38016, 0x010ac670
0,        168,        168,        1,    38016, 0x374e9bdd
0,        169,        169,        1,    38016, 0xd8499c26
0,        170,        170,        1,    38016, 0x5901a512
0,        171,        171,        1,    38016, 0x31b2bcdf
0,        172,        172,        1,    38016, 0x972cdda0
0,        173,        173,        1,    38016, 0x10c8ded1
0,        174,        174,        1,    38016, 0xc6e3c839
0,        175,        175,        1,    38016, 0xf661aa12
0,        176,        176,        1,    38016, 0x6ca379d0
0,        177,        177,        1,    38016, 0xc5a53d41
0,        178,        178,        1,    38016, 0x317d353c
0,        179,        179,        1,    38016, 0xb9962522
0,        180,        180,        1,    38016, 0x0769ec52
0,        181,        181,        1,    38016, 0x4463ea8b
0,        182,        182,        1,    38016, 0xdd7dd585
0,        183,        183,        1,    38016, 0x6039ca99
0,        184,        184,        1,    38016, 0x87beeba1
0,        185,        185,        1,    38016, 0x2503fd5d
0,        186,        186,        1,    38016, 0xde950c40
0,        187,        187,        1,    38016, 0xd6f5332f
0,        188,        188,        1,    38016, 0xa95b3137
0,        189,        189,        1,    38016, 0x37c026b4
0,        190,        190,        1,    38016, 0x93f9e3e3
0,        191,        191,        1,    38016, 0x5826b471
0,        192,        192,        1,    38016, 0xef81ac84
0,        193,        193,        1,    38016, 0x6361dfa0
0,        194,        194,        1,    38016, 0x9774f041
0,        195,        195,        1,    38016, 0xd8d01ad1
0,        196,        196,        1,    38016, 0x456252f3
0,        197,        197,        1,    38016, 0x448c6119
0,        198,        198,        1,    38016, 0x12157fca
0,        199,        199,        1,    38016, 0x145ca727
0,        200,        200,        1,    38016, 0x17a5b174
0,        201,        201,        1,    38016, 0xc0c0bb0c
0,        202,        202,        1,    38016, 0x9afbc5e8
0,        203,        203,        1,    38016, 0xc8c7cc3a
0,        204,        204,        1,    38016, 0x489dc5dd
0,        205,        205,        1,    38016, 0x6da6c7c8
0,        206,        206,        1,    38016, 0x6408d491
0,        207,        207,        1,    38016, 0x0820d9ce
0,        208,        208,        1,    38016, 0xebcfc8d6
0,        209,        209,        1,    38016, 0xf462b2a2
0,        210,        210,        1,    38016, 0xadb65d17
0,        211,        211,        1,    38016, 0xecde79e9
0,        212,        212,        1,    38016, 0x81786ed0
0,        213,        213,        1,    38016, 0x3cfc51f8
0,        214,        214,        1,    38016, 0x307560ba
0,        215,        215,        1,    38016, 0xc4f95361
0,        216,        216,        1,    38016, 0xe2fe384b
0,        217,        217,        1,    38016, 0x95de4e60
0,        218,        218,        1,    38016, 0x1b6147f9
0,        219,        219,        1,    38016, 0xe1bc385b
0,        220,        220,        1,    38016, 0x14cc446a
0,        221,        221,        1,    38016, 0x5fcb313f
0,        222,        222,        1,    38016, 0xf33f1721
0,        223,        223,        1,    38016, 0x49fc2fbb
0,        224,        224,        1,    38016, 0x33ad3314
0,        225,        225,        1,    38016, 0x92b51315
0,        226,        226,        1,    38016, 0x7e4d3139
0,        227,        227,        1,    38016, 0xb99e432b
0,        228,        228,        1,    38016, 0x52cb3c30
0,        229,        229,        1,    38016, 0xe5e48199
0,        230,        230,        1,    38016, 0x59419769
0,        231,        231,        1,    38016, 0x3e90b130
0,        232,        232,        1,    38016, 0x85fbfbd6
0,        233,        233,        1,    38016, 0xba8912ac
0,        234,        234,        1,    38016, 0x3fc3128c
0,        235,        235,        1,    38016, 0x61db4d37
0,        236,        236,        1,    38016, 0x3c405a46
0,        237,        237,        1,    38016, 0x9c113b43
0,        238,        238,        1,    38016, 0x739c43f4
0,        239,        239,        1,    38016, 0xffab0fe6
0,        240,        240,        1,    38016, 0x99cee4bd
0,        241,        241,        1,    38016, 0xd76dcff5
0,        242,        242,        1,    38016, 0xe8ccb16c
0,        243,        243,        1,    38016, 0x43d8ff1f
0,        244,        244,        1,    38016, 0xffde708b
0,        245,        245,        1,    38016, 0xe5cfd3d4
0,        246,        246,        1,    38016, 0x0b67ef9f
0,        247,        247,        1,    38016, 0xd54cd697
0,        248,        248,        1,    38016, 0x5879926e
0,        249,        249,        1,    38016, 0x9cb01428
0,        250,        250,        1,    38016, 0x09b0c0b7
0,        251,        251,        1,    38016, 0xbbef721e
0,        252,        252,        1,    38016, 0xcebd66ea
0,        253,        253,        1,    38016, 0x7492c956
0,        254,        254,        1,    38016, 0xeaa5317b
0,        255,        255,        1,    38016, 0xe952c9bd
0,        256,        256,        1,    38016, 0xb4cfd878
0,        257,        257,        1,    38016, 0xa8675f14
0,        258,        258,        1,    38016, 0x24653121
0,        259,        259,        1,    38016, 0xeec9425e
0,        260,        260,        1,    38016, 0x14413e58
0,        261,        261,        1,    38016, 0xc8e13f0a
0,        262,        262,        1,    38016, 0x09045f0f
0,        263,        263,        1,    38016, 0xa021583e
0,        264,        264,        1,    38016, 0x26384591
0,        265,        265,        1,    38016, 0x157b55d2
0,        266,        266,        1,    38016, 0x22973c65
0,        267,        267,        1,    38016, 0x2fe30f64
0,        268,        268,        1,    38016, 0xf640fab4
0,        269,        269,        1,    38016, 0x2b82d807
0,        270,        270,        1,    38016, 0x6faca613
0,        271,        271,        1,    38016, 0x8a5b89c3
0,        272,        272,        1,    38016, 0xb7d76316
0,        273,        273,        1,    38016, 0x3e3a0a82
0,        274,        274,        1,    38016, 0x7d93d78b
0,        275,        275,        1,    38016, 0xa3bcc050
0,        276,        276,        1,    38016, 0x41d4b2ba
0,        277,        277,        1,    38016, 0x7a08d518
0,        278,        278,        1,    38016, 0xd6b0f72b
0,        279,        279,        1,    38016, 0x9c794c7b
0,        280,        280,        1,    38016, 0xc2680d18
0,        281,        281,        1,    38016, 0x9fa6db96
0,        282,        282,        1,    38016, 0xd90c83c3
0,        283,        283,        1,    38016, 0xf1278cf5
0,        284,        284,        1,    38016, 0xf2ce5e19
0,        285,        285,        1,    38016, 0x2d41a44b
0,        286,        286,        1,    38016, 0xade2715b
0,        287,        287,        1,    38016, 0xd21da6fe
0,        288,        288,        1,    38016, 0x37c89e7f
0,        289,        289,        1,    38016, 0x6bad76e8
0,        290,        290,        1,    38016, 0xfefce893
0,        291,        291,        1,    38016, 0xcd301b29
0,        292,        292,        1,    38016, 0x0e80a08d
0,        293,        293,        1,    38016, 0x88f3d605
0,        294,        294,        1,    38016, 0x80273791
0,        295,        295,        1,    38016, 0x36472009
0,        296,        296,        1,    38016, 0xe8b6fc54
0,        297,        297,        1,    38016, 0x5d9bfd2d
0,        298,        298,        1,    38016, 0x61df1820
0,        299,        299,        1,    38016, 0x8db23b5c
